<svg xmlns="http://www.w3.org/2000/svg" viewBox="232 257 46 166" fill="#000000">
<path d="M235.456543,274.032776 C238.972748,264.691437 245.624786,260.098846 255.002975,259.865875 C263.326874,259.659058 271.238525,265.536102 274.211884,273.407745 C277.075409,280.988647 275.166016,290.100403 269.211395,295.415100 C262.734131,301.196228 255.319290,302.986847 247.038269,299.550598 C239.141373,296.273773 234.661972,289.499573 234.661697,280.832458 C234.661636,278.678589 234.493866,276.497314 235.456543,274.032776z"/>
<path d="M235.035797,335.018280 C235.057312,331.363281 235.074646,328.204041 235.101074,325.044891 C235.134918,321.001495 237.099960,318.863159 241.221329,318.865417 C250.533051,318.870514 259.844849,318.858154 269.156464,318.891541 C272.530701,318.903625 274.495178,320.548920 274.536743,324.041443 C274.647369,333.337189 274.762726,342.633453 274.770050,351.929596 C274.773193,355.890930 272.810364,358.139465 268.641998,358.133057 C259.496460,358.119049 250.350830,358.124207 241.205261,358.137604 C237.072586,358.143646 235.105927,356.038879 235.092453,351.976074 C235.074265,346.488739 235.054672,341.001434 235.035797,335.018280z"/>
<path d="M235.590668,410.888641 C235.591660,401.585571 235.535370,392.765076 235.614777,383.945770 C235.670120,377.799225 238.941574,375.716156 244.341492,378.685577 C253.522232,383.734161 262.576263,389.020172 271.581390,394.378143 C275.991730,397.002228 276.119781,401.197937 271.714050,403.801941 C262.407684,409.302399 252.974594,414.601562 243.443741,419.703552 C238.660919,422.263824 235.852737,420.338623 235.608612,414.866089 C235.556717,413.703369 235.594727,412.536591 235.590668,410.888641z"/>
</svg>
